<svg width="23" height="13" viewBox="0 0 23 13" fill="none" xmlns="http://www.w3.org/2000/svg">
<path d="M0.64 9.424V8.32L6.256 0.544H8V8.16H9.6V9.424H8V12H6.56V9.424H0.64ZM6.624 2.064L2.32 8.16H6.624V2.064ZM11.7585 12.096C11.4812 12.096 11.2465 12 11.0545 11.808C10.8625 11.616 10.7665 11.3813 10.7665 11.104C10.7665 10.8267 10.8625 10.592 11.0545 10.4C11.2465 10.208 11.4812 10.112 11.7585 10.112C12.0252 10.112 12.2492 10.208 12.4305 10.4C12.6225 10.592 12.7185 10.8267 12.7185 11.104C12.7185 11.3813 12.6225 11.616 12.4305 11.808C12.2492 12 12.0252 12.096 11.7585 12.096ZM21.7899 1.696H16.1739V5.344C16.4192 5.00267 16.7819 4.72533 17.2619 4.512C17.7419 4.288 18.2592 4.176 18.8139 4.176C19.6992 4.176 20.4192 4.36267 20.9739 4.736C21.5285 5.09867 21.9232 5.57333 22.1579 6.16C22.4032 6.736 22.5259 7.34933 22.5259 8C22.5259 8.768 22.3819 9.456 22.0939 10.064C21.8059 10.672 21.3632 11.152 20.7659 11.504C20.1792 11.856 19.4485 12.032 18.5739 12.032C17.4539 12.032 16.5472 11.744 15.8539 11.168C15.1605 10.592 14.7392 9.824 14.5899 8.864H16.0139C16.1525 9.472 16.4459 9.94667 16.8939 10.288C17.3419 10.6293 17.9072 10.8 18.5899 10.8C19.4325 10.8 20.0672 10.5493 20.4939 10.048C20.9205 9.536 21.1339 8.864 21.1339 8.032C21.1339 7.2 20.9205 6.56 20.4939 6.112C20.0672 5.65333 19.4379 5.424 18.6059 5.424C18.0405 5.424 17.5445 5.56267 17.1179 5.84C16.7019 6.10667 16.3979 6.47467 16.2059 6.944H14.8299V0.415999H21.7899V1.696Z" fill="#FEA31B"/>
</svg>
